<svg
        xmlns="http://www.w3.org/2000/svg"
        viewBox="0 0 504 504"
        width="88.983"
        height="88.983"
>
    <defs>
        <linearGradient id="gradient1" x1="0" y1="0" x2="0" y2="1">
            <stop offset="0%" stop-color="#D1BC7F"/>
            <stop offset="100%" stop-color="#E0AD19"/>
        </linearGradient>
    </defs>
    <g fill="url(#gradient1)">
        <path d="M256,143c-69.323,0-135.762-14.903-182.283-40.889c-1.856-1.037-3.14-2.86-3.491-4.957s0.271-4.239,1.688-5.823C118.752,39.009,185.848,9,256,9c70.152,0,137.248,30.009,184.084,82.332c1.418,1.583,2.039,3.726,1.688,5.823s-1.635,3.92-3.49,4.957C391.761,128.097,325.322,143,256,143z M88.462,94.097C132.455,116.347,192.871,129,256,129s123.545-12.653,167.537-34.903C379.734,48.807,319.179,23,256,23C192.822,23,132.266,48.807,88.462,94.097z"/>
        <path d="M356.548,131.985c-2.947,0-5.689-1.876-6.653-4.83c-10.404-31.873-24.602-58.353-41.059-76.577C292.543,32.537,274.272,23,256,23c-18.273,0-36.543,9.537-52.836,27.579c-16.457,18.224-30.655,44.704-41.059,76.577c-1.199,3.675-5.15,5.685-8.827,4.482c-3.675-1.2-5.682-5.151-4.482-8.827C172.059,51.546,212.135,9,256,9s83.941,42.546,107.203,113.811c1.2,3.675-0.807,7.627-4.482,8.827C358,131.873,357.268,131.985,356.548,131.985z"/>
        <path d="M26.586,333.652c-0.146,0-0.294-0.005-0.442-0.014c-2.905-0.183-5.394-2.145-6.25-4.928C12.665,305.224,9,280.76,9,256c0-60.862,22.344-119.343,62.915-164.668c2.186-2.44,5.771-3.041,8.629-1.443c21.473,11.995,47.206,21.507,76.483,28.274c1.914,0.442,3.553,1.668,4.519,3.378c0.966,1.71,1.168,3.747,0.559,5.614C149.606,165.445,143,209.999,143,256c0,3.866-3.134,7-7,7c-44.335,0-84.779,26.116-103.037,66.534C31.826,332.052,29.322,333.652,26.586,333.652z M78.715,104.823C42.746,146.966,23,200.431,23,256c0,17.539,1.948,34.919,5.804,51.866c21.862-34.321,59.209-56.421,100.243-58.675c0.584-42.201,6.586-83.102,17.481-119.16C121.153,123.653,98.398,115.194,78.715,104.823z"/>
        <path d="M434.865,423c-1.164,0-2.338-0.29-3.41-0.889c-21.479-11.996-47.211-21.509-76.482-28.273c-1.913-0.442-3.554-1.668-4.519-3.378c-0.966-1.71-1.169-3.747-0.56-5.614C362.394,346.555,369,302,369,256c0-46-6.606-90.553-19.105-128.845c-0.609-1.867-0.406-3.904,0.559-5.614c0.966-1.71,2.605-2.936,4.52-3.378c29.277-6.767,55.01-16.279,76.481-28.274c2.859-1.597,6.445-0.999,8.63,1.443C480.656,136.657,503,195.137,503,256c0,60.862-22.344,119.343-62.916,164.669C438.719,422.194,436.806,423,434.865,423z M365.472,381.969c25.369,6.377,48.127,14.837,67.812,25.209C469.253,365.034,489,311.569,489,256c0-55.569-19.746-109.034-55.716-151.177c-19.683,10.372-42.437,18.83-67.813,25.208C376.952,168.027,383,211.396,383,256C383,300.604,376.952,343.974,365.472,381.969z"/>
        <path d="M256,503c-24.772,0-49.238-3.664-72.72-10.891c-2.782-0.856-4.745-3.346-4.927-6.251c-0.183-2.906,1.452-5.621,4.105-6.819c6.654-3.004,13.056-6.685,19.027-10.938c2.704-1.927,6.389-1.688,8.823,0.57C224.843,482.16,240.216,489,256,489c3.866,0,7,3.134,7,7S259.866,503,256,503z M204.125,483.198c0.69,0.156,1.381,0.311,2.073,0.461c-0.406-0.333-0.811-0.67-1.216-1.012C204.696,482.832,204.411,483.016,204.125,483.198z"/>
        <path d="M256,503c-3.866,0-7-3.134-7-7s3.134-7,7-7c18.272,0,36.543-9.536,52.836-27.578c16.457-18.225,30.654-44.704,41.059-76.576c1.126-3.448,4.697-5.464,8.23-4.648c30.563,7.063,57.532,17.053,80.157,29.691c1.855,1.037,3.14,2.86,3.49,4.957s-0.271,4.239-1.688,5.823C393.248,472.991,326.152,503,256,503z M361.138,395.316c-13.865,39.826-33.115,70.115-55.307,88.273c44.527-9.777,85.613-32.501,117.709-65.689C405.347,408.679,384.42,401.104,361.138,395.316z"/>
        <path d="M256,503c-19.431,0-38.008-8.098-55.215-24.067c-1.543-1.432-2.359-3.482-2.224-5.583c0.136-2.1,1.209-4.028,2.924-5.249C231.237,446.906,249,412.476,249,376c0-3.866,3.134-7,7-7c35.616,0,69.977,3.768,102.125,11.197c1.913,0.442,3.554,1.668,4.519,3.378c0.966,1.71,1.169,3.747,0.56,5.614C339.941,460.454,299.865,503,256,503z M216.658,474.1C229.293,483.994,242.495,489,256,489c18.272,0,36.543-9.536,52.836-27.578c15.179-16.81,28.438-40.645,38.568-69.254c-26.855-5.65-55.249-8.712-84.602-9.121C260.825,418.448,244.018,451.56,216.658,474.1z"/>
        <path d="M136,503C65.972,503,9,446.028,9,376c0-18.196,3.77-35.769,11.205-52.229C40.723,278.35,86.175,249,136,249c70.028,0,127,56.972,127,127c0,40.994-19.959,79.687-53.392,103.503c-6.711,4.781-13.907,8.918-21.389,12.296C171.762,499.231,154.193,503,136,503z M136,263c-44.334,0-84.779,26.116-103.037,66.534C26.352,344.171,23,359.805,23,376c0,62.309,50.691,113,113,113c16.192,0,31.823-3.352,46.458-9.961c6.655-3.004,13.057-6.685,19.028-10.938C231.238,446.906,249,412.476,249,376C249,313.691,198.309,263,136,263z"/>
        <path d="M136,463c-25.916,0-47-21.084-47-47c0-3.866,3.134-7,7-7s7,3.134,7,7c0,18.196,14.804,33,33,33s33-14.804,33-33s-14.804-33-33-33c-25.916,0-47-21.084-47-47s21.084-47,47-47s47,21.084,47,47c0,3.866-3.134,7-7,7s-7-3.134-7-7c0-18.196-14.804-33-33-33s-33,14.804-33,33s14.804,33,33,33c25.916,0,47,21.084,47,47S161.916,463,136,463z"/>
        <path d="M136,473c-3.866,0-7-3.134-7-7V286c0-3.866,3.134-7,7-7s7,3.134,7,7v180C143,469.866,139.866,473,136,473z"/>
        <path d="M256,503c-3.866,0-7-3.134-7-7V16c0-3.866,3.134-7,7-7s7,3.134,7,7v480C263,499.866,259.866,503,256,503z"/>
        <path d="M496,263H16c-3.866,0-7-3.134-7-7s3.134-7,7-7h480c3.866,0,7,3.134,7,7S499.866,263,496,263z"/>
    </g>
</svg>